<svg viewBox="0 0 165 36.97">
    <path d="M17.88,30.22A19.94,19.94,0,0,1,15.07,25c-4.05,0-9-3.27-9-9.74,0-5.45,3.21-9.68,9-9.68,5.46,0,9,4.63,9,9.8s-3.25,8.52-5.6,8.52a21.6,21.6,0,0,0,5.7,7.7C25.85,33,30.09,36.06,34,37l0.72-1c-5-2-8.75-5.12-8.75-8a5.91,5.91,0,0,1,1.34-3.86,15,15,0,0,0,2.75-8.66A15.17,15.17,0,0,0,15,0,15.17,15.17,0,0,0,0,15.29,15.09,15.09,0,0,0,17.88,30.22Z"/>
    <path d="M52.42,8.83v19H47V25.5H47a7.81,7.81,0,0,1-6,2.65c-4.32,0-7.35-2.06-7.35-7.86V8.83H39V18.91c0,3.5,1.1,4.67,3.62,4.67,2.33,0,4.44-1.87,4.44-5.52V8.83h5.36Z"/>
    <path d="M74.5,8.6V27.29H69.76V25H69.64a6.73,6.73,0,0,1-5.57,2.56c-5.15,0-8.89-3.83-8.89-9.62S59,8.28,64,8.28a6.84,6.84,0,0,1,5.45,2.4h0.12V8.58h5v0ZM69.74,18c0-3-2-5.25-4.69-5.25s-4.81,2-4.81,5.25c0,3,2,5.09,4.77,5.09A4.78,4.78,0,0,0,69.74,18Z"/>
    <path d="M97.12,16.3v11.3H91.86v-10c0-3.62-1.32-4.74-3.78-4.74-2.64,0-4.46,1.79-4.46,5.17v9.57H78.36V8.6h5.28V11h0.08A8.19,8.19,0,0,1,90,8.28C94.2,8.3,97.12,10.48,97.12,16.3Z"/>
    <path d="M120.3,0V27.29h-4.85V25h-0.1a7.14,7.14,0,0,1-5.83,2.57c-5.25,0-9.09-3.84-9.09-9.65s3.85-9.73,8.93-9.73a7.29,7.29,0,0,1,5.71,2.41h0.12V0h5.11V0Zm-4.83,18a5,5,0,0,0-5-5.27c-2.72,0-4.85,2-4.85,5.27a4.77,4.77,0,0,0,4.85,5.11A4.88,4.88,0,0,0,115.47,18Z"/>
    <path d="M123.06,17.93c0-5.59,4-9.66,9.91-9.66s10,3.91,10,9.66-4.13,9.66-10,9.66S123.06,23.52,123.06,17.93Zm14.76,0a4.87,4.87,0,1,0-9.73,0A4.87,4.87,0,1,0,137.82,17.93Z"/>
    <path d="M145.13,17.93c0-5.59,4-9.66,9.91-9.66s10,3.91,10,9.66-4.13,9.66-10,9.66S145.13,23.52,145.13,17.93Zm14.76,0a4.87,4.87,0,1,0-9.73,0A4.87,4.87,0,1,0,159.89,17.93Z"/>
</svg>